# xmcd
#
# Track frame offsets: 
#        150
#        1101
#        17589
#        35078
#        55046
#        70059
#        84790
#        101984
#        113345
#        129297
#        142503
#        154939
#        168804
#        186565
#        198536
#        213685
#
# Disc length: 3115 seconds
#
# Revision: 0
# Processed by: cddbd v1.5.2PL0 Copyright (c) Steve Scherf et al.
# Submitted via: ExactAudioCopy v0.99pb4
#
DISCID=c90c2910
DTITLE=Big and Rich - Between Raising Hell and Amazing Grace
DYEAR=2007
DGENRE=Country
TTITLE0=Intro
TTITLE1=Lost In This Moment
TTITLE2=Between Raising Hell and Amazing Grace
TTITLE3=Faster Than Angels Fly
TTITLE4=Eternity (Featuring John Legend)
TTITLE5=When the Devil Gets the Best of Me
TTITLE6=Radio
TTITLE7=You Never Stop Loving Somebody
TTITLE8=High Five
TTITLE9=Please Man (Featuring Wyclef jean)
TTITLE10=You Shook Me All Night Long
TTITLE11=Loud
TTITLE12=Loud (Lil Jon Country Club Remix) [Featuring Lil Jon and Cowb
TTITLE12=oy Troy]
TTITLE13=Woodstock
TTITLE14=Everybody's Rockin'
TTITLE15=Disco Ball
EXTD=
EXTT0=
EXTT1=
EXTT2=
EXTT3=
EXTT4=
EXTT5=
EXTT6=
EXTT7=
EXTT8=
EXTT9=
EXTT10=
EXTT11=
EXTT12=
EXTT13=
EXTT14=
EXTT15=
PLAYORDER=
